<?xml version="1.0" encoding="UTF-8"?>
<svg xmlns="http://www.w3.org/2000/svg" version="1.1">
<g fill="white" stroke="black" stroke-width="1">
<path d="M 106,653 L 105,654 L 104,654 L 101,657 L 101,670 L 104,673 L 105,673 L 106,674 L 109,674 L 110,673 L 111,673 L 114,670 L 114,657 L 111,654 L 110,654 L 109,653 Z" />
<path d="M 74,653 L 73,654 L 71,654 L 70,655 L 66,655 L 65,656 L 64,656 L 61,659 L 61,660 L 64,663 L 65,663 L 66,664 L 68,664 L 69,665 L 69,668 L 68,669 L 66,669 L 65,670 L 64,670 L 61,673 L 61,676 L 60,677 L 50,677 L 49,678 L 48,678 L 45,681 L 45,686 L 48,689 L 49,689 L 50,690 L 60,690 L 61,691 L 61,692 L 60,693 L 58,693 L 57,694 L 56,694 L 53,697 L 53,702 L 56,705 L 57,705 L 58,706 L 62,706 L 63,705 L 64,705 L 66,703 L 69,703 L 71,705 L 72,705 L 73,706 L 85,706 L 86,705 L 87,705 L 90,702 L 90,699 L 91,698 L 92,698 L 93,699 L 93,702 L 96,705 L 97,705 L 98,706 L 101,706 L 102,705 L 103,705 L 106,702 L 106,697 L 103,694 L 102,694 L 101,693 L 99,693 L 98,692 L 98,673 L 95,670 L 94,670 L 93,669 L 91,669 L 90,668 L 90,657 L 87,654 L 86,654 L 85,653 Z" />
<path d="M 10,637 L 9,638 L 8,638 L 5,641 L 5,646 L 8,649 L 9,649 L 10,650 L 13,650 L 14,649 L 15,649 L 18,646 L 18,641 L 15,638 L 14,638 L 13,637 Z" />
<path d="M 986,629 L 985,630 L 984,630 L 981,633 L 981,638 L 984,641 L 985,641 L 986,642 L 989,642 L 990,641 L 991,641 L 994,638 L 994,633 L 991,630 L 990,630 L 989,629 Z" />
<path d="M 170,622 L 167,625 L 167,630 L 170,633 L 173,633 L 176,630 L 176,625 L 173,622 Z" />
<path d="M 898,621 L 897,622 L 896,622 L 893,625 L 893,630 L 896,633 L 897,633 L 898,634 L 901,634 L 902,633 L 903,633 L 906,630 L 906,625 L 903,622 L 902,622 L 901,621 Z" />
<path d="M 90,621 L 89,622 L 88,622 L 85,625 L 85,628 L 84,629 L 82,629 L 81,630 L 80,630 L 77,633 L 77,636 L 76,637 L 74,637 L 73,638 L 72,638 L 69,641 L 69,646 L 72,649 L 73,649 L 74,650 L 77,650 L 78,649 L 79,649 L 82,646 L 82,643 L 83,642 L 85,642 L 86,641 L 87,641 L 90,638 L 90,635 L 91,634 L 93,634 L 94,633 L 95,633 L 98,630 L 98,625 L 95,622 L 94,622 L 93,621 Z" />
<path d="M 66,621 L 65,622 L 64,622 L 61,625 L 61,630 L 64,633 L 65,633 L 66,634 L 69,634 L 70,633 L 71,633 L 74,630 L 74,625 L 71,622 L 70,622 L 69,621 Z" />
<path d="M 0,621 L 0,634 L 20,634 L 21,635 L 21,638 L 24,641 L 25,641 L 26,642 L 29,642 L 30,641 L 31,641 L 34,638 L 34,633 L 31,630 L 30,630 L 29,629 L 27,629 L 26,628 L 26,625 L 23,622 L 22,622 L 21,621 Z" />
<path d="M 53,617 L 51,619 L 51,620 L 50,621 L 47,621 L 45,623 L 45,630 L 48,633 L 49,633 L 50,634 L 53,634 L 54,633 L 55,633 L 58,630 L 58,625 L 56,623 L 56,622 L 58,620 L 58,619 L 56,617 Z" />
<path d="M 988,606 L 987,607 L 984,607 L 982,609 L 984,611 L 984,612 L 982,614 L 982,615 L 981,616 L 981,622 L 984,625 L 985,625 L 986,626 L 989,626 L 990,625 L 991,625 L 994,622 L 994,615 L 991,612 L 991,611 L 993,609 L 990,606 Z" />
<path d="M 1009,605 L 1008,606 L 1007,606 L 1006,607 L 1006,608 L 1005,609 L 1005,614 L 1006,615 L 1006,624 L 1005,625 L 1005,638 L 1008,641 L 1009,641 L 1010,642 L 1012,642 L 1013,643 L 1013,645 L 1015,647 L 1015,648 L 1016,648 L 1017,649 L 1018,649 L 1019,650 L 1020,650 L 1021,649 L 1022,649 L 1023,648 L 1023,605 Z" />
<path d="M 170,599 L 169,600 L 168,600 L 166,602 L 166,603 L 167,604 L 166,605 L 162,605 L 161,606 L 160,606 L 157,609 L 157,612 L 156,613 L 154,613 L 153,614 L 152,614 L 149,617 L 149,622 L 152,625 L 153,625 L 154,626 L 157,626 L 158,625 L 159,625 L 162,622 L 162,619 L 163,618 L 165,618 L 166,617 L 167,617 L 170,614 L 170,608 L 169,607 L 170,606 L 173,606 L 174,605 L 175,605 L 177,603 L 177,602 L 175,600 L 174,600 L 173,599 Z" />
<path d="M 18,599 L 16,601 L 16,606 L 18,608 L 21,608 L 23,606 L 23,601 L 21,599 Z" />
<path d="M 82,597 L 81,598 L 80,598 L 77,601 L 77,614 L 80,617 L 81,617 L 82,618 L 85,618 L 86,617 L 87,617 L 90,614 L 90,601 L 87,598 L 86,598 L 85,597 Z" />
<path d="M 0,597 L 0,604 L 5,604 L 6,603 L 7,603 L 9,601 L 9,600 L 7,598 L 6,598 L 5,597 Z" />
<path d="M 938,589 L 937,590 L 936,590 L 933,593 L 933,598 L 936,601 L 937,601 L 938,602 L 941,602 L 942,601 L 943,601 L 946,598 L 946,593 L 943,590 L 942,590 L 941,589 Z" />
<path d="M 882,589 L 881,590 L 880,590 L 877,593 L 877,598 L 880,601 L 881,601 L 882,602 L 885,602 L 886,601 L 887,601 L 890,598 L 890,593 L 887,590 L 886,590 L 885,589 Z" />
<path d="M 858,589 L 857,590 L 856,590 L 853,593 L 853,606 L 856,609 L 857,609 L 858,610 L 861,610 L 862,609 L 863,609 L 866,606 L 866,593 L 863,590 L 862,590 L 861,589 Z" />
<path d="M 18,582 L 15,585 L 15,590 L 18,593 L 21,593 L 24,590 L 24,585 L 21,582 Z" />
<path d="M 954,581 L 953,582 L 952,582 L 950,584 L 950,585 L 952,587 L 953,587 L 954,588 L 957,588 L 958,587 L 959,587 L 961,585 L 961,584 L 959,582 L 958,582 L 957,581 Z" />
<path d="M 130,581 L 129,582 L 128,582 L 125,585 L 125,598 L 128,601 L 129,601 L 130,602 L 141,602 L 142,601 L 143,601 L 146,598 L 146,585 L 143,582 L 142,582 L 141,581 Z" />
<path d="M 0,581 L 0,594 L 5,594 L 6,593 L 7,593 L 10,590 L 10,585 L 7,582 L 6,582 L 5,581 Z" />
<path d="M 898,573 L 897,574 L 896,574 L 893,577 L 893,582 L 896,585 L 897,585 L 898,586 L 901,586 L 902,585 L 903,585 L 906,582 L 906,577 L 903,574 L 902,574 L 901,573 Z" />
<path d="M 0,566 L 0,577 L 5,577 L 6,576 L 7,576 L 9,574 L 9,573 L 8,572 L 8,571 L 9,570 L 9,569 L 7,567 L 6,567 L 5,566 Z" />
<path d="M 213,561 L 211,563 L 211,564 L 213,566 L 216,566 L 218,564 L 218,563 L 216,561 Z" />
<path d="M 130,560 L 129,561 L 128,561 L 126,563 L 126,564 L 128,566 L 129,566 L 130,567 L 133,567 L 134,566 L 135,566 L 137,564 L 137,563 L 135,561 L 134,561 L 133,560 Z" />
<path d="M 993,557 L 992,558 L 991,558 L 990,559 L 990,560 L 989,561 L 989,567 L 990,568 L 990,575 L 992,577 L 998,577 L 999,578 L 1006,578 L 1007,577 L 1008,577 L 1009,576 L 1009,575 L 1010,574 L 1010,561 L 1009,560 L 1009,559 L 1008,558 L 1007,558 L 1006,557 Z" />
<path d="M 945,557 L 944,558 L 943,558 L 942,559 L 942,560 L 941,561 L 941,574 L 942,575 L 942,576 L 943,577 L 944,577 L 945,578 L 958,578 L 959,577 L 960,577 L 961,576 L 961,575 L 962,574 L 962,561 L 961,560 L 961,559 L 960,558 L 959,558 L 958,557 Z" />
<path d="M 904,550 L 902,552 L 902,553 L 904,555 L 905,555 L 906,556 L 906,557 L 905,558 L 905,559 L 907,561 L 911,561 L 913,559 L 913,558 L 911,556 L 910,556 L 909,555 L 909,554 L 910,553 L 910,552 L 908,550 Z" />
<path d="M 873,550 L 870,553 L 872,555 L 872,556 L 869,559 L 869,566 L 872,569 L 873,569 L 874,570 L 877,570 L 878,569 L 879,569 L 882,566 L 882,560 L 881,559 L 881,558 L 879,556 L 879,555 L 881,553 L 879,551 L 876,551 L 875,550 Z" />
<path d="M 73,550 L 70,553 L 72,555 L 72,556 L 70,558 L 72,560 L 75,560 L 76,561 L 78,561 L 81,558 L 79,556 L 79,555 L 81,553 L 79,551 L 76,551 L 75,550 Z" />
<path d="M 242,549 L 241,550 L 240,550 L 237,553 L 238,554 L 238,555 L 239,556 L 238,557 L 240,559 L 241,559 L 242,560 L 245,560 L 246,559 L 247,559 L 249,557 L 248,556 L 249,555 L 249,554 L 250,553 L 247,550 L 246,550 L 245,549 Z" />
<path d="M 49,541 L 48,542 L 47,542 L 46,543 L 46,544 L 45,545 L 45,574 L 46,575 L 46,576 L 47,577 L 48,577 L 49,578 L 54,578 L 55,579 L 55,582 L 57,584 L 60,584 L 61,585 L 61,588 L 60,589 L 58,589 L 57,590 L 56,590 L 53,593 L 53,598 L 56,601 L 57,601 L 58,602 L 61,602 L 62,601 L 63,601 L 66,598 L 66,595 L 67,594 L 94,594 L 95,593 L 96,593 L 97,592 L 97,591 L 98,590 L 98,579 L 99,578 L 110,578 L 111,577 L 112,577 L 113,576 L 113,575 L 114,574 L 114,568 L 113,567 L 113,566 L 114,565 L 114,563 L 113,562 L 113,560 L 111,558 L 110,558 L 109,557 L 108,557 L 107,558 L 105,558 L 104,557 L 97,557 L 96,558 L 95,558 L 94,559 L 94,560 L 93,561 L 93,572 L 92,573 L 88,573 L 87,574 L 80,574 L 79,573 L 67,573 L 66,572 L 66,545 L 65,544 L 65,543 L 64,542 L 63,542 L 62,541 Z" />
<path d="M 146,533 L 145,534 L 144,534 L 141,537 L 141,566 L 144,569 L 145,569 L 146,570 L 149,570 L 150,569 L 151,569 L 154,566 L 154,537 L 151,534 L 150,534 L 149,533 Z" />
<path d="M 122,533 L 121,534 L 120,534 L 117,537 L 117,542 L 120,545 L 121,545 L 122,546 L 124,546 L 125,547 L 125,550 L 128,553 L 129,553 L 130,554 L 133,554 L 134,553 L 135,553 L 138,550 L 138,545 L 135,542 L 134,542 L 133,541 L 131,541 L 130,540 L 130,537 L 127,534 L 126,534 L 125,533 Z" />
<path d="M 242,525 L 241,526 L 240,526 L 237,529 L 237,534 L 238,535 L 238,536 L 239,537 L 239,542 L 241,544 L 246,544 L 247,545 L 248,545 L 249,546 L 253,546 L 254,545 L 255,545 L 258,542 L 258,537 L 255,534 L 254,534 L 253,533 L 251,533 L 250,532 L 250,529 L 247,526 L 246,526 L 245,525 Z" />
<path d="M 997,521 L 995,523 L 995,524 L 997,526 L 1000,526 L 1002,524 L 1002,523 L 1000,521 Z" />
<path d="M 903,521 L 901,523 L 901,524 L 903,526 L 906,526 L 908,524 L 908,523 L 906,521 Z" />
<path d="M 194,521 L 193,522 L 192,522 L 190,524 L 190,525 L 192,527 L 193,527 L 194,528 L 197,528 L 198,527 L 199,527 L 201,525 L 201,524 L 199,522 L 198,522 L 197,521 Z" />
<path d="M 975,520 L 973,522 L 976,525 L 979,525 L 981,527 L 984,527 L 986,525 L 983,522 L 980,522 L 978,520 Z" />
<path d="M 50,520 L 49,521 L 48,521 L 46,523 L 46,524 L 48,526 L 49,526 L 50,527 L 53,527 L 54,528 L 53,529 L 53,534 L 55,536 L 58,536 L 60,534 L 60,529 L 58,527 L 57,527 L 56,526 L 56,525 L 57,524 L 57,523 L 55,521 L 54,521 L 53,520 Z" />
<path d="M 211,519 L 209,521 L 209,526 L 211,528 L 214,528 L 216,526 L 216,521 L 214,519 Z" />
<path d="M 170,517 L 169,518 L 168,518 L 165,521 L 165,524 L 164,525 L 162,525 L 161,526 L 160,526 L 157,529 L 157,534 L 160,537 L 161,537 L 162,538 L 165,538 L 166,537 L 167,537 L 170,534 L 170,531 L 171,530 L 173,530 L 174,529 L 175,529 L 178,526 L 178,521 L 175,518 L 174,518 L 173,517 Z" />
<path d="M 922,511 L 920,513 L 920,518 L 922,520 L 925,520 L 927,518 L 927,513 L 925,511 Z" />
<path d="M 1010,509 L 1009,510 L 1008,510 L 1005,513 L 1005,518 L 1007,520 L 1007,521 L 1006,522 L 1006,523 L 1007,524 L 1007,526 L 1005,528 L 1005,529 L 1004,530 L 1004,533 L 1005,534 L 1005,542 L 1006,543 L 1006,544 L 1007,545 L 1008,545 L 1009,546 L 1023,546 L 1023,525 L 1017,525 L 1016,524 L 1017,523 L 1017,522 L 1016,521 L 1016,520 L 1018,518 L 1018,513 L 1015,510 L 1014,510 L 1013,509 Z" />
<path d="M 234,509 L 233,510 L 232,510 L 229,513 L 229,516 L 228,517 L 226,517 L 225,518 L 224,518 L 221,521 L 221,526 L 224,529 L 225,529 L 226,530 L 229,530 L 230,529 L 231,529 L 234,526 L 234,523 L 235,522 L 237,522 L 238,521 L 239,521 L 242,518 L 242,513 L 239,510 L 238,510 L 237,509 Z" />
<path d="M 0,509 L 0,530 L 14,530 L 15,529 L 16,529 L 17,528 L 17,527 L 18,526 L 18,513 L 17,512 L 17,511 L 16,510 L 15,510 L 14,509 Z" />
<path d="M 100,501 L 99,502 L 98,502 L 97,503 L 96,503 L 95,504 L 95,505 L 93,507 L 93,508 L 95,510 L 95,511 L 96,512 L 97,512 L 98,513 L 99,513 L 100,514 L 101,514 L 102,513 L 103,513 L 105,511 L 105,510 L 103,508 L 103,507 L 105,505 L 105,504 L 103,502 L 102,502 L 101,501 Z" />
<path d="M 858,493 L 857,494 L 856,494 L 853,497 L 853,502 L 856,505 L 857,505 L 858,506 L 861,506 L 862,505 L 863,505 L 866,502 L 866,497 L 863,494 L 862,494 L 861,493 Z" />
<path d="M 130,493 L 129,494 L 128,494 L 125,497 L 125,502 L 128,505 L 129,505 L 130,506 L 141,506 L 142,505 L 143,505 L 146,502 L 146,497 L 143,494 L 142,494 L 141,493 Z" />
<path d="M 66,493 L 65,494 L 64,494 L 61,497 L 61,502 L 64,505 L 65,505 L 66,506 L 69,506 L 70,505 L 71,505 L 74,502 L 74,497 L 71,494 L 70,494 L 69,493 Z" />
<path d="M 927,489 L 925,491 L 925,492 L 927,494 L 930,494 L 932,492 L 932,491 L 930,489 Z" />
<path d="M 189,486 L 187,488 L 187,495 L 189,497 L 192,497 L 194,495 L 194,488 L 192,486 Z" />
<path d="M 41,486 L 38,489 L 40,491 L 40,492 L 38,494 L 40,496 L 43,496 L 44,497 L 46,497 L 49,494 L 47,492 L 47,491 L 49,489 L 47,487 L 44,487 L 43,486 Z" />
<path d="M 242,485 L 241,486 L 240,486 L 237,489 L 237,494 L 240,497 L 241,497 L 242,498 L 246,498 L 247,497 L 253,497 L 254,496 L 255,496 L 257,494 L 257,493 L 256,492 L 256,491 L 257,490 L 257,489 L 255,487 L 254,487 L 253,486 L 247,486 L 246,485 Z" />
<path d="M 162,485 L 161,486 L 160,486 L 157,489 L 157,510 L 158,511 L 158,512 L 159,513 L 160,513 L 161,514 L 174,514 L 175,513 L 176,513 L 177,512 L 177,511 L 178,510 L 178,505 L 179,504 L 181,504 L 183,502 L 183,497 L 181,495 L 177,495 L 176,494 L 175,494 L 174,493 L 171,493 L 170,492 L 170,489 L 167,486 L 166,486 L 165,485 Z" />
<path d="M 1000,483 L 998,485 L 998,488 L 1000,490 L 1007,490 L 1009,488 L 1009,485 L 1007,483 Z" />
<path d="M 938,479 L 936,481 L 936,486 L 938,488 L 941,488 L 943,486 L 943,481 L 941,479 Z" />
<path d="M 122,478 L 121,479 L 120,479 L 118,481 L 118,482 L 119,483 L 119,484 L 118,485 L 118,486 L 120,488 L 121,488 L 122,489 L 125,489 L 126,488 L 127,488 L 129,486 L 129,485 L 128,484 L 128,483 L 129,482 L 129,481 L 127,479 L 126,479 L 125,478 Z" />
<path d="M 850,477 L 849,478 L 848,478 L 845,481 L 845,486 L 848,489 L 849,489 L 850,490 L 853,490 L 854,489 L 855,489 L 858,486 L 858,481 L 855,478 L 854,478 L 853,477 Z" />
<path d="M 146,477 L 145,478 L 144,478 L 141,481 L 141,486 L 144,489 L 145,489 L 146,490 L 149,490 L 150,489 L 151,489 L 154,486 L 154,481 L 151,478 L 150,478 L 149,477 Z" />
<path d="M 97,477 L 96,478 L 95,478 L 94,479 L 94,480 L 93,481 L 93,494 L 94,495 L 94,496 L 95,497 L 96,497 L 97,498 L 110,498 L 111,497 L 112,497 L 113,496 L 113,495 L 114,494 L 114,481 L 113,480 L 113,479 L 112,478 L 111,478 L 110,477 Z" />
<path d="M 946,464 L 945,465 L 944,465 L 942,467 L 942,468 L 944,470 L 945,470 L 946,471 L 949,471 L 950,470 L 951,470 L 953,468 L 953,467 L 951,465 L 950,465 L 949,464 Z" />
<path d="M 935,463 L 933,465 L 933,470 L 935,472 L 938,472 L 940,470 L 940,465 L 938,463 Z" />
<path d="M 235,463 L 233,465 L 233,470 L 235,472 L 238,472 L 240,470 L 240,465 L 238,463 Z" />
<path d="M 858,461 L 857,462 L 856,462 L 853,465 L 853,470 L 856,473 L 857,473 L 858,474 L 861,474 L 862,473 L 863,473 L 866,470 L 866,465 L 863,462 L 862,462 L 861,461 Z" />
<path d="M 146,461 L 145,462 L 144,462 L 143,463 L 138,463 L 136,465 L 136,470 L 138,472 L 143,472 L 144,473 L 145,473 L 146,474 L 149,474 L 150,473 L 151,473 L 154,470 L 154,465 L 151,462 L 150,462 L 149,461 Z" />
<path d="M 49,454 L 46,457 L 48,459 L 48,460 L 46,462 L 48,464 L 51,464 L 52,465 L 54,465 L 57,462 L 55,460 L 55,459 L 57,457 L 55,455 L 52,455 L 51,454 Z" />
<path d="M 218,453 L 217,454 L 216,454 L 213,457 L 213,462 L 216,465 L 217,465 L 218,466 L 221,466 L 222,465 L 223,465 L 226,462 L 226,457 L 223,454 L 222,454 L 221,453 Z" />
<path d="M 178,453 L 177,454 L 176,454 L 173,457 L 173,460 L 172,461 L 161,461 L 160,462 L 159,462 L 158,463 L 158,464 L 157,465 L 157,478 L 158,479 L 158,480 L 159,481 L 160,481 L 161,482 L 172,482 L 173,483 L 173,486 L 176,489 L 177,489 L 178,490 L 181,490 L 182,489 L 183,489 L 186,486 L 186,483 L 187,482 L 191,482 L 192,483 L 193,483 L 194,484 L 197,484 L 198,483 L 199,483 L 201,481 L 201,480 L 199,478 L 198,478 L 197,477 L 195,477 L 194,476 L 194,473 L 191,470 L 190,470 L 189,469 L 186,469 L 185,470 L 184,470 L 181,473 L 181,476 L 180,477 L 179,477 L 178,476 L 178,467 L 179,466 L 181,466 L 182,465 L 183,465 L 186,462 L 186,457 L 183,454 L 182,454 L 181,453 Z" />
<path d="M 1007,449 L 1005,451 L 1005,452 L 1007,454 L 1010,454 L 1012,452 L 1012,451 L 1010,449 Z" />
<path d="M 866,448 L 865,449 L 864,449 L 862,451 L 862,452 L 864,454 L 865,454 L 866,455 L 869,455 L 870,454 L 871,454 L 873,452 L 873,451 L 871,449 L 870,449 L 869,448 Z" />
<path d="M 917,441 L 915,443 L 915,444 L 917,446 L 920,446 L 922,444 L 922,443 L 920,441 Z" />
<path d="M 1022,440 L 1019,443 L 1019,444 L 1022,447 L 1023,447 L 1023,440 Z" />
<path d="M 859,439 L 857,441 L 857,446 L 859,448 L 862,448 L 864,446 L 864,441 L 862,439 Z" />
<path d="M 167,439 L 165,441 L 165,446 L 164,447 L 162,447 L 161,448 L 160,448 L 158,450 L 158,451 L 160,453 L 161,453 L 162,454 L 165,454 L 166,453 L 167,453 L 169,451 L 169,449 L 172,446 L 172,441 L 170,439 Z" />
<path d="M 1010,431 L 1009,432 L 1008,432 L 1006,434 L 1006,435 L 1008,437 L 1009,437 L 1010,438 L 1013,438 L 1014,437 L 1015,437 L 1017,435 L 1017,434 L 1015,432 L 1014,432 L 1013,431 Z" />
<path d="M 146,431 L 144,433 L 144,438 L 146,440 L 149,440 L 151,438 L 151,433 L 149,431 Z" />
<path d="M 114,431 L 112,433 L 112,438 L 114,440 L 117,440 L 119,438 L 119,433 L 117,431 Z" />
<path d="M 874,430 L 873,431 L 872,431 L 869,434 L 871,436 L 871,437 L 870,438 L 870,439 L 872,441 L 873,441 L 874,442 L 877,442 L 878,441 L 879,441 L 881,439 L 881,438 L 880,437 L 880,436 L 882,434 L 879,431 L 878,431 L 877,430 Z" />
<path d="M 853,425 L 851,427 L 851,428 L 853,430 L 856,430 L 858,428 L 858,427 L 856,425 Z" />
<path d="M 66,423 L 64,425 L 64,430 L 63,431 L 58,431 L 56,433 L 56,438 L 58,440 L 66,440 L 68,438 L 68,433 L 71,430 L 71,425 L 69,423 Z" />
<path d="M 818,421 L 817,422 L 816,422 L 813,425 L 813,436 L 812,437 L 810,437 L 809,438 L 808,438 L 805,441 L 805,444 L 804,445 L 802,445 L 801,446 L 800,446 L 797,449 L 797,454 L 800,457 L 801,457 L 802,458 L 805,458 L 806,457 L 807,457 L 810,454 L 810,451 L 811,450 L 821,450 L 822,449 L 823,449 L 826,446 L 826,434 L 827,433 L 829,433 L 832,430 L 832,425 L 829,422 L 826,422 L 825,423 L 824,423 L 823,422 L 822,422 L 821,421 Z" />
<path d="M 213,415 L 211,417 L 211,420 L 209,422 L 208,422 L 205,425 L 205,428 L 204,429 L 203,429 L 202,428 L 202,427 L 200,425 L 197,425 L 195,427 L 195,428 L 198,431 L 198,432 L 197,433 L 197,438 L 200,441 L 201,441 L 202,442 L 206,442 L 207,441 L 208,441 L 211,438 L 212,438 L 213,439 L 216,439 L 218,437 L 216,435 L 216,433 L 218,431 L 218,417 L 216,415 Z" />
<path d="M 989,414 L 987,416 L 987,423 L 989,425 L 992,425 L 994,423 L 994,416 L 992,414 Z" />
<path d="M 837,407 L 835,409 L 835,414 L 837,416 L 840,416 L 842,414 L 842,409 L 840,407 Z" />
<path d="M 821,407 L 819,409 L 819,414 L 821,416 L 824,416 L 826,414 L 826,409 L 824,407 Z" />
<path d="M 921,406 L 918,409 L 920,411 L 920,412 L 918,414 L 920,416 L 919,417 L 918,417 L 917,416 L 914,416 L 913,417 L 912,417 L 910,419 L 910,420 L 912,422 L 913,422 L 914,423 L 917,423 L 918,422 L 919,422 L 921,420 L 921,419 L 919,417 L 920,416 L 923,416 L 924,417 L 926,417 L 929,414 L 927,412 L 927,411 L 929,409 L 927,407 L 924,407 L 923,406 Z" />
<path d="M 123,406 L 120,409 L 120,414 L 123,417 L 126,417 L 129,414 L 129,409 L 126,406 Z" />
<path d="M 1010,405 L 1009,406 L 1008,406 L 1005,409 L 1005,414 L 1008,417 L 1009,417 L 1010,418 L 1013,418 L 1014,417 L 1015,417 L 1018,414 L 1018,409 L 1015,406 L 1014,406 L 1013,405 Z" />
<path d="M 858,405 L 857,406 L 856,406 L 853,409 L 853,414 L 856,417 L 857,417 L 858,418 L 861,418 L 862,417 L 863,417 L 866,414 L 866,413 L 867,412 L 869,412 L 870,411 L 871,411 L 873,409 L 873,408 L 871,406 L 870,406 L 869,405 Z" />
<path d="M 186,405 L 185,406 L 184,406 L 181,409 L 181,414 L 184,417 L 185,417 L 186,418 L 189,418 L 190,417 L 191,417 L 194,414 L 194,409 L 191,406 L 190,406 L 189,405 Z" />
<path d="M 203,399 L 201,401 L 201,406 L 203,408 L 206,408 L 208,406 L 208,401 L 206,399 Z" />
<path d="M 171,399 L 169,401 L 169,406 L 171,408 L 174,408 L 176,406 L 176,401 L 174,399 Z" />
<path d="M 226,397 L 225,398 L 224,398 L 223,399 L 222,399 L 222,400 L 220,402 L 220,405 L 222,407 L 222,408 L 223,408 L 224,409 L 225,409 L 226,410 L 229,410 L 230,409 L 231,409 L 234,406 L 234,401 L 231,398 L 230,398 L 229,397 Z" />
<path d="M 146,397 L 145,398 L 144,398 L 141,401 L 141,406 L 144,409 L 145,409 L 146,410 L 149,410 L 150,409 L 151,409 L 154,406 L 154,401 L 151,398 L 150,398 L 149,397 Z" />
<path d="M 1002,391 L 1000,393 L 1000,398 L 1002,400 L 1005,400 L 1007,398 L 1007,393 L 1005,391 Z" />
<path d="M 212,390 L 209,393 L 209,398 L 212,401 L 215,401 L 218,398 L 218,393 L 215,390 Z" />
<path d="M 983,383 L 981,385 L 981,390 L 983,392 L 986,392 L 988,390 L 988,385 L 986,383 Z" />
<path d="M 146,382 L 143,385 L 143,390 L 146,393 L 149,393 L 150,392 L 151,392 L 152,391 L 154,391 L 156,389 L 159,389 L 162,386 L 160,384 L 157,384 L 155,386 L 153,386 L 149,382 Z" />
<path d="M 914,381 L 913,382 L 912,382 L 909,385 L 909,390 L 912,393 L 913,393 L 914,394 L 917,394 L 918,393 L 919,393 L 922,390 L 922,385 L 919,382 L 918,382 L 917,381 Z" />
<path d="M 850,381 L 849,382 L 848,382 L 845,385 L 845,390 L 848,393 L 849,393 L 850,394 L 853,394 L 854,393 L 855,393 L 858,390 L 858,385 L 855,382 L 854,382 L 853,381 Z" />
<path d="M 818,381 L 817,382 L 816,382 L 813,385 L 813,390 L 812,391 L 810,391 L 809,392 L 808,392 L 806,394 L 806,395 L 808,397 L 809,397 L 810,398 L 812,398 L 815,401 L 816,401 L 817,402 L 821,402 L 822,401 L 823,401 L 826,398 L 826,385 L 823,382 L 822,382 L 821,381 Z" />
<path d="M 1010,375 L 1008,377 L 1008,382 L 1010,384 L 1013,384 L 1015,382 L 1015,377 L 1013,375 Z" />
<path d="M 941,374 L 939,376 L 939,383 L 941,385 L 944,385 L 946,383 L 946,376 L 944,374 Z" />
<path d="M 930,374 L 929,375 L 928,375 L 926,377 L 926,378 L 927,379 L 927,380 L 926,381 L 926,382 L 928,384 L 929,384 L 930,385 L 933,385 L 934,384 L 935,384 L 937,382 L 937,381 L 936,380 L 936,379 L 937,378 L 937,377 L 935,375 L 934,375 L 933,374 Z" />
<path d="M 18,373 L 17,374 L 16,374 L 13,377 L 13,382 L 16,385 L 17,385 L 18,386 L 21,386 L 22,385 L 23,385 L 26,382 L 26,377 L 23,374 L 22,374 L 21,373 Z" />
<path d="M 954,369 L 952,371 L 952,372 L 954,374 L 957,374 L 959,372 L 959,371 L 957,369 Z" />
<path d="M 143,369 L 141,371 L 141,372 L 143,374 L 146,374 L 148,372 L 148,371 L 146,369 Z" />
<path d="M 866,367 L 864,369 L 864,374 L 866,376 L 869,376 L 871,374 L 871,369 L 869,367 Z" />
<path d="M 88,366 L 86,368 L 86,369 L 88,371 L 89,371 L 90,372 L 90,373 L 89,374 L 89,375 L 91,377 L 95,377 L 97,375 L 97,374 L 95,372 L 94,372 L 93,371 L 93,370 L 94,369 L 94,368 L 92,366 Z" />
<path d="M 65,365 L 64,366 L 63,366 L 62,367 L 62,368 L 61,369 L 61,373 L 60,374 L 56,374 L 54,376 L 54,377 L 56,379 L 57,379 L 58,380 L 58,381 L 57,382 L 57,383 L 59,385 L 60,385 L 61,386 L 78,386 L 79,385 L 80,385 L 81,384 L 81,383 L 82,382 L 82,377 L 81,376 L 81,368 L 79,366 L 72,366 L 71,365 Z" />
<path d="M 0,365 L 0,378 L 5,378 L 6,377 L 7,377 L 10,374 L 10,369 L 7,366 L 6,366 L 5,365 Z" />
<path d="M 786,361 L 784,363 L 784,364 L 786,366 L 789,366 L 791,364 L 791,363 L 789,361 Z" />
<path d="M 906,360 L 905,361 L 904,361 L 902,363 L 902,364 L 904,366 L 905,366 L 906,367 L 909,367 L 910,366 L 911,366 L 913,364 L 913,363 L 911,361 L 910,361 L 909,360 Z" />
<path d="M 762,360 L 761,361 L 760,361 L 758,363 L 758,364 L 760,366 L 761,366 L 762,367 L 765,367 L 766,368 L 765,369 L 765,374 L 768,377 L 769,377 L 770,378 L 773,378 L 774,377 L 775,377 L 778,374 L 778,369 L 775,366 L 774,366 L 773,365 L 770,365 L 769,364 L 769,363 L 767,361 L 766,361 L 765,360 Z" />
<path d="M 133,360 L 131,362 L 128,362 L 125,365 L 128,368 L 126,370 L 126,373 L 128,375 L 135,375 L 137,373 L 137,370 L 136,369 L 137,368 L 137,367 L 136,366 L 136,364 L 138,362 L 136,360 Z" />
<path d="M 970,359 L 968,361 L 968,366 L 970,368 L 973,368 L 975,366 L 977,366 L 978,367 L 981,367 L 982,366 L 983,366 L 985,364 L 985,363 L 983,361 L 982,361 L 981,360 L 978,360 L 977,361 L 975,361 L 973,359 Z" />
<path d="M 810,357 L 809,358 L 808,358 L 806,360 L 806,361 L 807,362 L 807,363 L 805,365 L 808,368 L 809,368 L 810,369 L 813,369 L 814,368 L 815,368 L 818,365 L 816,363 L 816,362 L 817,361 L 817,360 L 815,358 L 814,358 L 813,357 Z" />
<path d="M 170,357 L 169,358 L 168,358 L 165,361 L 165,374 L 168,377 L 169,377 L 170,378 L 172,378 L 173,379 L 173,380 L 172,381 L 170,381 L 169,382 L 168,382 L 165,385 L 165,390 L 168,393 L 169,393 L 170,394 L 182,394 L 183,393 L 184,393 L 187,390 L 188,390 L 191,393 L 192,393 L 193,394 L 197,394 L 198,393 L 199,393 L 200,392 L 205,392 L 207,390 L 207,385 L 205,383 L 200,383 L 199,382 L 198,382 L 197,381 L 194,381 L 193,382 L 191,382 L 190,383 L 187,383 L 186,382 L 186,369 L 183,366 L 182,366 L 181,365 L 179,365 L 178,364 L 178,361 L 175,358 L 174,358 L 173,357 Z" />
<path d="M 768,350 L 766,352 L 766,353 L 768,355 L 769,355 L 770,356 L 770,357 L 769,358 L 769,359 L 771,361 L 775,361 L 777,359 L 777,358 L 775,356 L 774,356 L 773,355 L 773,354 L 774,353 L 774,352 L 772,350 Z" />
<path d="M 117,350 L 115,352 L 115,359 L 117,361 L 120,361 L 122,359 L 122,352 L 120,350 Z" />
<path d="M 74,350 L 73,351 L 72,351 L 70,353 L 70,354 L 71,355 L 71,356 L 70,357 L 70,358 L 72,360 L 73,360 L 74,361 L 77,361 L 78,360 L 79,360 L 81,358 L 81,357 L 80,356 L 80,355 L 81,354 L 81,353 L 79,351 L 78,351 L 77,350 Z" />
<path d="M 1022,349 L 1019,352 L 1019,359 L 1020,360 L 1020,361 L 1021,362 L 1020,363 L 1020,364 L 1022,366 L 1023,366 L 1023,349 Z" />
<path d="M 882,349 L 881,350 L 880,350 L 878,352 L 878,353 L 880,355 L 881,355 L 882,356 L 885,356 L 886,355 L 887,355 L 889,353 L 889,352 L 887,350 L 886,350 L 885,349 Z" />
<path d="M 98,344 L 97,345 L 96,345 L 94,347 L 94,348 L 96,350 L 97,350 L 98,351 L 101,351 L 102,350 L 103,350 L 105,348 L 105,347 L 103,345 L 102,345 L 101,344 Z" />
<path d="M 0,342 L 0,353 L 1,353 L 4,350 L 4,345 L 1,342 Z" />
<path d="M 961,333 L 960,334 L 959,334 L 958,335 L 958,336 L 957,337 L 957,343 L 958,344 L 958,351 L 960,353 L 961,353 L 962,354 L 963,354 L 964,353 L 965,353 L 966,354 L 974,354 L 975,353 L 976,353 L 977,352 L 977,351 L 978,350 L 978,337 L 977,336 L 977,335 L 976,334 L 975,334 L 974,333 Z" />
<path d="M 202,333 L 201,334 L 200,334 L 197,337 L 197,340 L 196,341 L 194,341 L 193,342 L 192,342 L 189,345 L 189,350 L 192,353 L 193,353 L 194,354 L 196,354 L 197,355 L 197,356 L 196,357 L 194,357 L 193,358 L 192,358 L 189,361 L 189,374 L 192,377 L 193,377 L 194,378 L 205,378 L 206,377 L 207,377 L 210,374 L 210,369 L 207,366 L 206,366 L 205,365 L 203,365 L 202,364 L 202,363 L 203,362 L 205,362 L 206,361 L 207,361 L 210,358 L 210,355 L 211,354 L 212,354 L 213,355 L 213,358 L 216,361 L 217,361 L 218,362 L 220,362 L 221,363 L 221,365 L 220,366 L 216,366 L 214,368 L 214,369 L 216,371 L 217,371 L 218,372 L 218,373 L 217,374 L 217,375 L 219,377 L 220,377 L 221,378 L 221,382 L 222,383 L 222,384 L 223,385 L 224,385 L 225,386 L 238,386 L 239,385 L 240,385 L 241,384 L 241,383 L 242,382 L 242,369 L 241,368 L 241,367 L 240,366 L 239,366 L 238,365 L 235,365 L 234,364 L 234,361 L 231,358 L 230,358 L 229,357 L 227,357 L 226,356 L 226,337 L 225,336 L 225,335 L 224,334 L 223,334 L 222,333 L 212,333 L 211,334 L 208,334 L 207,333 Z" />
<path d="M 138,333 L 137,334 L 136,334 L 133,337 L 133,342 L 136,345 L 137,345 L 138,346 L 143,346 L 144,347 L 144,348 L 142,350 L 144,352 L 147,352 L 148,353 L 150,353 L 153,350 L 151,348 L 151,347 L 154,344 L 157,344 L 159,342 L 159,337 L 157,335 L 152,335 L 151,334 L 150,334 L 149,333 Z" />
<path d="M 986,328 L 985,329 L 984,329 L 982,331 L 982,332 L 984,334 L 985,334 L 986,335 L 989,335 L 990,334 L 991,334 L 993,332 L 993,331 L 991,329 L 990,329 L 989,328 Z" />
<path d="M 179,326 L 177,328 L 177,329 L 178,330 L 178,331 L 177,332 L 176,332 L 174,334 L 174,335 L 176,337 L 180,337 L 182,335 L 182,334 L 181,333 L 181,332 L 182,331 L 183,331 L 185,329 L 185,328 L 183,326 Z" />
<path d="M 98,325 L 97,326 L 96,326 L 94,328 L 94,329 L 96,331 L 97,331 L 98,332 L 101,332 L 102,331 L 103,331 L 105,329 L 105,328 L 103,326 L 102,326 L 101,325 Z" />
<path d="M 170,320 L 169,321 L 168,321 L 166,323 L 166,324 L 168,326 L 169,326 L 170,327 L 173,327 L 174,326 L 175,326 L 177,324 L 177,323 L 175,321 L 174,321 L 173,320 Z" />
<path d="M 56,320 L 54,322 L 54,325 L 56,327 L 63,327 L 65,325 L 65,322 L 63,320 Z" />
<path d="M 0,317 L 0,338 L 14,338 L 15,337 L 16,337 L 17,336 L 17,335 L 18,334 L 18,321 L 17,320 L 17,319 L 16,318 L 15,318 L 14,317 Z" />
<path d="M 893,312 L 891,314 L 888,314 L 885,317 L 887,319 L 890,319 L 892,317 L 895,317 L 898,314 L 896,312 Z" />
<path d="M 855,311 L 853,313 L 853,318 L 855,320 L 858,320 L 860,318 L 860,313 L 858,311 Z" />
<path d="M 818,309 L 817,310 L 816,310 L 813,313 L 813,318 L 816,321 L 817,321 L 818,322 L 821,322 L 822,321 L 823,321 L 826,318 L 826,313 L 823,310 L 822,310 L 821,309 Z" />
<path d="M 842,307 L 841,308 L 840,308 L 838,310 L 838,311 L 840,313 L 841,313 L 842,314 L 845,314 L 846,313 L 847,313 L 849,311 L 849,310 L 847,308 L 846,308 L 845,307 Z" />
<path d="M 49,303 L 47,305 L 47,310 L 49,312 L 52,312 L 54,310 L 54,305 L 52,303 Z" />
<path d="M 18,301 L 17,302 L 16,302 L 14,304 L 14,305 L 16,307 L 17,307 L 18,308 L 21,308 L 22,307 L 23,307 L 25,305 L 25,304 L 23,302 L 22,302 L 21,301 Z" />
<path d="M 842,297 L 841,298 L 840,298 L 838,300 L 838,301 L 840,303 L 841,303 L 842,304 L 845,304 L 846,303 L 847,303 L 849,301 L 849,300 L 847,298 L 846,298 L 845,297 Z" />
<path d="M 914,296 L 913,297 L 912,297 L 910,299 L 910,300 L 912,302 L 913,302 L 914,303 L 917,303 L 918,302 L 919,302 L 921,300 L 921,299 L 919,297 L 918,297 L 917,296 Z" />
<path d="M 203,295 L 201,297 L 201,302 L 203,304 L 204,304 L 205,305 L 205,308 L 204,309 L 202,309 L 201,310 L 200,310 L 197,313 L 197,318 L 200,321 L 201,321 L 202,322 L 205,322 L 206,321 L 207,321 L 210,318 L 210,315 L 211,314 L 220,314 L 221,315 L 221,318 L 222,319 L 222,322 L 223,323 L 223,324 L 222,325 L 222,326 L 224,328 L 225,328 L 226,329 L 229,329 L 230,328 L 231,328 L 233,326 L 233,325 L 232,324 L 232,323 L 233,322 L 233,321 L 231,319 L 231,313 L 228,310 L 227,310 L 226,309 L 226,305 L 223,302 L 222,302 L 221,301 L 210,301 L 209,302 L 208,301 L 208,297 L 206,295 Z" />
<path d="M 962,294 L 961,295 L 960,295 L 958,297 L 958,298 L 959,299 L 959,300 L 958,301 L 958,302 L 960,304 L 961,304 L 962,305 L 965,305 L 966,304 L 967,304 L 969,302 L 969,301 L 968,300 L 968,299 L 969,298 L 969,297 L 967,295 L 966,295 L 965,294 Z" />
<path d="M 236,293 L 233,296 L 233,303 L 236,306 L 238,306 L 241,303 L 241,296 L 238,293 Z" />
<path d="M 207,287 L 205,289 L 205,291 L 207,293 L 210,293 L 213,296 L 216,296 L 218,294 L 218,292 L 216,290 L 213,290 L 210,287 Z" />
<path d="M 23,287 L 21,289 L 21,294 L 23,296 L 26,296 L 28,294 L 28,289 L 26,287 Z" />
<path d="M 800,286 L 798,288 L 798,289 L 800,291 L 801,291 L 802,292 L 802,293 L 801,294 L 801,295 L 803,297 L 804,297 L 805,298 L 805,302 L 807,304 L 810,304 L 812,302 L 812,297 L 807,292 L 806,292 L 805,291 L 805,290 L 806,289 L 806,288 L 804,286 Z" />
<path d="M 144,286 L 143,287 L 138,287 L 137,288 L 136,288 L 134,290 L 134,291 L 136,293 L 137,293 L 138,294 L 141,294 L 142,293 L 143,293 L 144,292 L 145,292 L 146,293 L 145,294 L 145,295 L 147,297 L 149,297 L 151,299 L 151,300 L 150,301 L 150,302 L 152,304 L 153,304 L 154,305 L 158,305 L 159,304 L 160,304 L 162,302 L 165,305 L 167,305 L 168,304 L 169,304 L 170,303 L 175,303 L 176,302 L 177,302 L 179,300 L 179,299 L 177,297 L 176,297 L 175,296 L 169,296 L 168,297 L 165,297 L 164,298 L 161,295 L 160,295 L 159,294 L 153,294 L 151,292 L 150,292 L 149,291 L 149,290 L 150,289 L 150,288 L 148,286 Z" />
<path d="M 41,286 L 38,289 L 40,291 L 40,292 L 38,294 L 40,296 L 43,296 L 44,297 L 46,297 L 49,294 L 47,292 L 47,291 L 49,289 L 47,287 L 44,287 L 43,286 Z" />
<path d="M 993,285 L 992,286 L 991,286 L 990,287 L 990,288 L 989,289 L 989,302 L 990,303 L 990,304 L 991,305 L 992,305 L 993,306 L 1023,306 L 1023,285 Z" />
<path d="M 938,285 L 937,286 L 936,286 L 934,288 L 934,289 L 936,291 L 937,291 L 938,292 L 941,292 L 942,291 L 943,291 L 945,289 L 945,288 L 943,286 L 942,286 L 941,285 Z" />
<path d="M 983,279 L 981,281 L 981,286 L 983,288 L 986,288 L 988,286 L 988,281 L 986,279 Z" />
<path d="M 780,278 L 779,279 L 776,279 L 774,281 L 776,283 L 776,284 L 773,287 L 770,287 L 768,289 L 768,294 L 770,296 L 773,296 L 775,294 L 775,289 L 776,288 L 777,289 L 779,289 L 780,288 L 783,288 L 785,286 L 783,284 L 783,283 L 785,281 L 782,278 Z" />
<path d="M 113,278 L 110,281 L 112,283 L 112,284 L 110,286 L 112,288 L 115,288 L 116,289 L 118,289 L 121,286 L 119,284 L 119,283 L 121,281 L 119,279 L 116,279 L 115,278 Z" />
<path d="M 951,271 L 949,273 L 949,278 L 951,280 L 954,280 L 956,278 L 956,273 L 954,271 Z" />
<path d="M 911,271 L 909,273 L 909,278 L 911,280 L 914,280 L 916,278 L 916,273 L 914,271 Z" />
<path d="M 759,270 L 757,272 L 757,279 L 759,281 L 762,281 L 764,279 L 764,272 L 762,270 Z" />
<path d="M 1018,257 L 1016,259 L 1016,260 L 1018,262 L 1021,262 L 1023,260 L 1023,259 L 1021,257 Z" />
<path d="M 751,255 L 749,257 L 749,262 L 751,264 L 754,264 L 756,262 L 756,257 L 754,255 Z" />
<path d="M 17,253 L 16,254 L 15,254 L 14,255 L 14,256 L 13,257 L 13,270 L 14,271 L 14,272 L 15,273 L 16,273 L 17,274 L 30,274 L 31,273 L 32,273 L 33,272 L 33,271 L 34,270 L 34,257 L 33,256 L 33,255 L 32,254 L 31,254 L 30,253 Z" />
<path d="M 930,249 L 928,251 L 928,252 L 930,254 L 933,254 L 935,252 L 935,251 L 933,249 Z" />
<path d="M 53,246 L 51,248 L 51,255 L 53,257 L 56,257 L 58,255 L 58,248 L 56,246 Z" />
<path d="M 797,238 L 795,240 L 795,247 L 794,248 L 792,246 L 789,246 L 787,248 L 787,255 L 789,257 L 792,257 L 794,255 L 794,248 L 795,247 L 797,249 L 800,249 L 802,247 L 802,240 L 800,238 Z" />
<path d="M 165,238 L 163,240 L 163,247 L 165,249 L 168,249 L 170,247 L 170,240 L 168,238 Z" />
<path d="M 96,238 L 94,240 L 94,241 L 96,243 L 97,243 L 98,244 L 98,245 L 97,246 L 97,247 L 99,249 L 100,249 L 101,250 L 102,250 L 103,249 L 105,249 L 106,248 L 107,249 L 110,249 L 113,246 L 111,244 L 111,243 L 113,241 L 111,239 L 109,239 L 108,238 L 105,238 L 103,240 L 102,240 L 100,238 Z" />
<path d="M 944,233 L 941,236 L 944,239 L 946,239 L 948,241 L 951,241 L 953,239 L 953,238 L 951,236 L 949,236 L 946,233 Z" />
<path d="M 1020,230 L 1019,231 L 1016,231 L 1014,233 L 1016,235 L 1016,236 L 1014,238 L 1017,241 L 1019,241 L 1020,240 L 1021,240 L 1022,241 L 1023,241 L 1023,231 L 1022,230 Z" />
<path d="M 146,225 L 145,226 L 144,226 L 142,228 L 142,229 L 144,231 L 145,231 L 146,232 L 149,232 L 150,231 L 151,231 L 153,229 L 153,228 L 151,226 L 150,226 L 149,225 Z" />
<path d="M 815,223 L 813,225 L 813,230 L 815,232 L 818,232 L 820,230 L 820,225 L 818,223 Z" />
<path d="M 839,215 L 837,217 L 837,222 L 839,224 L 842,224 L 844,222 L 844,217 L 842,215 Z" />
<path d="M 47,215 L 45,217 L 45,222 L 47,224 L 50,224 L 52,222 L 52,217 L 50,215 Z" />
<path d="M 80,206 L 78,208 L 78,209 L 80,211 L 81,211 L 82,212 L 82,213 L 81,214 L 81,215 L 83,217 L 87,217 L 89,215 L 89,214 L 87,212 L 86,212 L 85,211 L 85,210 L 86,209 L 86,208 L 84,206 Z" />
<path d="M 961,205 L 960,206 L 959,206 L 958,207 L 958,208 L 957,209 L 957,222 L 958,223 L 958,224 L 959,225 L 960,225 L 961,226 L 974,226 L 975,225 L 976,225 L 977,224 L 977,223 L 978,222 L 978,209 L 977,208 L 977,207 L 976,206 L 975,206 L 974,205 Z" />
<path d="M 0,205 L 0,226 L 14,226 L 15,225 L 16,225 L 17,224 L 17,223 L 18,222 L 18,209 L 17,208 L 17,207 L 16,206 L 15,206 L 14,205 Z" />
<path d="M 237,201 L 235,203 L 235,204 L 237,206 L 240,206 L 242,204 L 242,203 L 240,201 Z" />
<path d="M 823,200 L 821,202 L 824,205 L 827,205 L 829,207 L 832,207 L 834,205 L 831,202 L 828,202 L 826,200 Z" />
<path d="M 170,200 L 169,201 L 168,201 L 166,203 L 166,204 L 168,206 L 169,206 L 170,207 L 173,207 L 174,206 L 175,206 L 177,204 L 177,203 L 175,201 L 174,201 L 173,200 Z" />
<path d="M 117,198 L 115,200 L 115,207 L 117,209 L 120,209 L 122,207 L 122,200 L 120,198 Z" />
<path d="M 215,192 L 213,194 L 216,197 L 219,197 L 221,199 L 224,199 L 226,197 L 223,194 L 220,194 L 218,192 Z" />
<path d="M 888,190 L 886,192 L 886,193 L 888,195 L 889,195 L 890,196 L 890,197 L 889,198 L 889,199 L 891,201 L 895,201 L 897,199 L 897,198 L 895,196 L 894,196 L 893,195 L 893,194 L 894,193 L 894,192 L 892,190 Z" />
<path d="M 776,190 L 774,192 L 774,193 L 776,195 L 777,195 L 778,196 L 778,197 L 777,198 L 777,199 L 779,201 L 783,201 L 785,199 L 785,198 L 783,196 L 782,196 L 781,195 L 781,194 L 782,193 L 782,192 L 780,190 Z" />
<path d="M 244,189 L 241,192 L 241,199 L 244,202 L 246,202 L 249,199 L 249,192 L 246,189 Z" />
<path d="M 879,182 L 877,184 L 877,191 L 879,193 L 882,193 L 884,191 L 884,184 L 882,182 Z" />
<path d="M 24,182 L 22,184 L 22,185 L 24,187 L 25,187 L 26,188 L 26,189 L 25,190 L 25,191 L 27,193 L 31,193 L 33,191 L 33,190 L 31,188 L 30,188 L 29,187 L 29,186 L 30,185 L 30,184 L 28,182 Z" />
<path d="M 738,181 L 737,182 L 736,182 L 733,185 L 733,190 L 736,193 L 737,193 L 738,194 L 741,194 L 742,193 L 743,193 L 746,190 L 746,185 L 743,182 L 742,182 L 741,181 Z" />
<path d="M 194,181 L 191,184 L 191,186 L 189,188 L 189,191 L 191,193 L 194,193 L 196,191 L 196,189 L 199,186 L 199,184 L 196,181 Z" />
<path d="M 784,175 L 782,177 L 782,178 L 783,179 L 783,180 L 782,181 L 782,182 L 784,184 L 786,184 L 788,182 L 791,182 L 793,180 L 793,179 L 791,177 L 788,177 L 786,175 Z" />
<path d="M 207,174 L 205,176 L 205,183 L 207,185 L 210,185 L 212,183 L 212,176 L 210,174 Z" />
<path d="M 869,167 L 866,170 L 863,170 L 861,172 L 861,174 L 863,176 L 866,176 L 869,173 L 872,173 L 874,171 L 874,169 L 872,167 Z" />
<path d="M 57,166 L 54,169 L 55,170 L 55,171 L 57,173 L 56,174 L 59,177 L 62,177 L 65,174 L 64,173 L 64,172 L 62,170 L 63,169 L 60,166 Z" />
<path d="M 225,165 L 222,168 L 222,175 L 225,178 L 227,178 L 230,175 L 230,168 L 227,165 Z" />
<path d="M 200,163 L 198,165 L 198,168 L 200,170 L 207,170 L 209,168 L 209,165 L 207,163 Z" />
<path d="M 720,158 L 718,160 L 718,161 L 720,163 L 721,163 L 722,164 L 722,165 L 721,166 L 721,167 L 723,169 L 727,169 L 729,167 L 729,166 L 727,164 L 726,164 L 725,163 L 725,162 L 726,161 L 726,160 L 724,158 Z" />
<path d="M 271,158 L 269,160 L 269,167 L 271,169 L 274,169 L 276,167 L 276,160 L 274,158 Z" />
<path d="M 145,158 L 142,161 L 142,163 L 143,164 L 143,165 L 142,166 L 144,168 L 144,169 L 142,171 L 142,172 L 144,174 L 145,174 L 146,175 L 149,175 L 150,174 L 151,174 L 153,172 L 153,171 L 151,169 L 151,168 L 153,166 L 153,164 L 152,163 L 152,162 L 153,161 L 151,159 L 149,159 L 148,158 Z" />
<path d="M 888,153 L 885,156 L 885,158 L 888,161 L 895,161 L 898,158 L 898,156 L 895,153 Z" />
<path d="M 187,151 L 185,153 L 185,158 L 187,160 L 190,160 L 192,158 L 192,153 L 190,151 Z" />
<path d="M 77,142 L 75,144 L 75,151 L 77,153 L 80,153 L 82,151 L 82,144 L 80,142 Z" />
<path d="M 40,139 L 38,141 L 38,144 L 40,146 L 47,146 L 49,144 L 49,141 L 47,139 Z" />
<path d="M 178,137 L 177,138 L 176,138 L 174,140 L 174,141 L 176,143 L 177,143 L 178,144 L 181,144 L 182,143 L 183,143 L 185,141 L 185,140 L 183,138 L 182,138 L 181,137 Z" />
<path d="M 138,137 L 137,138 L 136,138 L 134,140 L 134,141 L 136,143 L 137,143 L 138,144 L 141,144 L 142,143 L 143,143 L 145,141 L 145,140 L 143,138 L 142,138 L 141,137 Z" />
<path d="M 122,134 L 121,135 L 120,135 L 118,137 L 118,138 L 119,139 L 119,140 L 118,141 L 118,142 L 120,144 L 121,144 L 122,145 L 125,145 L 126,144 L 127,144 L 129,142 L 129,141 L 128,140 L 128,139 L 129,138 L 129,137 L 127,135 L 126,135 L 125,134 Z" />
<path d="M 993,133 L 990,136 L 990,143 L 989,144 L 989,158 L 990,159 L 990,160 L 991,161 L 992,161 L 993,162 L 1006,162 L 1007,161 L 1008,161 L 1009,160 L 1009,159 L 1010,158 L 1010,145 L 1009,144 L 1009,143 L 1008,142 L 1007,142 L 1006,141 L 1001,141 L 1000,140 L 999,140 L 998,139 L 998,136 L 995,133 Z" />
<path d="M 770,133 L 769,134 L 768,134 L 765,137 L 765,142 L 768,145 L 769,145 L 770,146 L 773,146 L 774,145 L 775,145 L 778,142 L 778,137 L 775,134 L 774,134 L 773,133 Z" />
<path d="M 845,126 L 843,128 L 843,135 L 845,137 L 848,137 L 850,135 L 850,128 L 848,126 Z" />
<path d="M 723,119 L 721,121 L 721,126 L 723,128 L 726,128 L 728,126 L 728,121 L 726,119 Z" />
<path d="M 258,119 L 256,121 L 256,126 L 258,128 L 261,128 L 263,126 L 263,121 L 261,119 Z" />
<path d="M 866,118 L 865,119 L 864,119 L 861,122 L 863,124 L 863,125 L 862,126 L 862,127 L 864,129 L 865,129 L 866,130 L 869,130 L 870,129 L 871,129 L 873,127 L 873,126 L 872,125 L 872,124 L 874,122 L 871,119 L 870,119 L 869,118 Z" />
<path d="M 1018,112 L 1017,113 L 1016,113 L 1014,115 L 1014,116 L 1016,118 L 1017,118 L 1018,119 L 1023,119 L 1023,112 Z" />
<path d="M 66,112 L 65,113 L 64,113 L 62,115 L 62,116 L 64,118 L 65,118 L 66,119 L 69,119 L 70,118 L 71,118 L 73,116 L 73,115 L 71,113 L 70,113 L 69,112 Z" />
<path d="M 936,109 L 935,110 L 928,110 L 926,112 L 926,120 L 925,121 L 925,140 L 924,141 L 913,141 L 912,142 L 911,142 L 910,143 L 910,144 L 909,145 L 909,158 L 910,159 L 910,160 L 911,161 L 912,161 L 913,162 L 926,162 L 927,161 L 928,161 L 929,160 L 929,159 L 930,158 L 930,147 L 931,146 L 958,146 L 959,145 L 960,145 L 961,144 L 961,143 L 962,142 L 962,129 L 961,128 L 961,127 L 960,126 L 959,126 L 958,125 L 947,125 L 946,124 L 946,113 L 945,112 L 945,111 L 944,110 L 943,110 L 942,109 Z" />
<path d="M 914,109 L 913,110 L 912,110 L 909,113 L 909,118 L 912,121 L 913,121 L 914,122 L 917,122 L 918,121 L 919,121 L 922,118 L 922,113 L 919,110 L 918,110 L 917,109 Z" />
<path d="M 282,109 L 281,110 L 280,110 L 277,113 L 277,118 L 280,121 L 281,121 L 282,122 L 285,122 L 286,121 L 287,121 L 290,118 L 290,113 L 287,110 L 286,110 L 285,109 Z" />
<path d="M 162,109 L 161,110 L 160,110 L 157,113 L 157,118 L 160,121 L 161,121 L 162,122 L 165,122 L 166,121 L 167,121 L 170,118 L 170,113 L 167,110 L 166,110 L 165,109 Z" />
<path d="M 42,103 L 40,105 L 40,110 L 42,112 L 45,112 L 47,110 L 47,105 L 45,103 Z" />
<path d="M 15,103 L 13,105 L 13,110 L 15,112 L 18,112 L 20,110 L 20,105 L 18,103 Z" />
<path d="M 1002,101 L 1001,102 L 1000,102 L 998,104 L 998,105 L 1000,107 L 1001,107 L 1002,108 L 1005,108 L 1006,107 L 1007,107 L 1009,105 L 1009,104 L 1007,102 L 1006,102 L 1005,101 Z" />
<path d="M 298,101 L 297,102 L 296,102 L 293,105 L 293,110 L 296,113 L 297,113 L 298,114 L 301,114 L 302,113 L 303,113 L 306,110 L 306,105 L 303,102 L 302,102 L 301,101 Z" />
<path d="M 922,99 L 921,100 L 920,100 L 918,102 L 918,103 L 920,105 L 921,105 L 922,106 L 925,106 L 926,105 L 927,105 L 929,103 L 929,102 L 927,100 L 926,100 L 925,99 Z" />
<path d="M 778,95 L 777,96 L 776,96 L 774,98 L 774,99 L 776,101 L 777,101 L 778,102 L 781,102 L 782,101 L 783,101 L 785,99 L 785,98 L 783,96 L 782,96 L 781,95 Z" />
<path d="M 71,95 L 69,97 L 69,102 L 71,104 L 74,104 L 76,102 L 76,97 L 74,95 Z" />
<path d="M 279,89 L 277,91 L 277,92 L 279,94 L 282,94 L 284,92 L 284,91 L 282,89 Z" />
<path d="M 130,89 L 128,91 L 128,92 L 127,93 L 113,93 L 112,94 L 111,94 L 110,95 L 110,96 L 109,97 L 109,111 L 110,112 L 110,113 L 111,114 L 109,116 L 109,118 L 111,120 L 114,120 L 117,117 L 120,117 L 123,114 L 126,114 L 127,113 L 128,113 L 129,112 L 129,111 L 130,110 L 130,96 L 129,95 L 130,94 L 133,94 L 135,92 L 135,91 L 133,89 Z" />
<path d="M 495,87 L 494,88 L 490,88 L 489,89 L 488,89 L 486,91 L 486,92 L 488,94 L 489,94 L 490,95 L 494,95 L 495,96 L 498,96 L 500,94 L 500,89 L 498,87 Z" />
<path d="M 178,87 L 177,88 L 176,88 L 174,90 L 174,91 L 176,93 L 177,93 L 178,94 L 181,94 L 182,93 L 183,93 L 185,91 L 185,90 L 183,88 L 182,88 L 181,87 Z" />
<path d="M 786,85 L 785,86 L 784,86 L 782,88 L 782,89 L 784,91 L 785,91 L 786,92 L 789,92 L 790,91 L 791,91 L 793,89 L 793,88 L 791,86 L 790,86 L 789,85 Z" />
<path d="M 306,85 L 305,86 L 304,86 L 301,89 L 301,94 L 304,97 L 305,97 L 306,98 L 309,98 L 310,97 L 311,97 L 314,94 L 314,89 L 311,86 L 310,86 L 309,85 Z" />
<path d="M 18,80 L 17,81 L 16,81 L 14,83 L 14,84 L 16,86 L 17,86 L 18,87 L 21,87 L 22,86 L 23,86 L 25,84 L 25,83 L 23,81 L 22,81 L 21,80 Z" />
<path d="M 1018,79 L 1017,80 L 1016,80 L 1014,82 L 1014,83 L 1016,85 L 1017,85 L 1018,86 L 1023,86 L 1023,79 Z" />
<path d="M 73,79 L 71,81 L 71,86 L 73,88 L 76,88 L 78,86 L 78,81 L 76,79 Z" />
<path d="M 31,72 L 29,74 L 32,77 L 35,77 L 37,79 L 40,79 L 42,77 L 39,74 L 36,74 L 34,72 Z" />
<path d="M 810,71 L 808,73 L 808,78 L 810,80 L 813,80 L 815,78 L 815,73 L 813,71 Z" />
<path d="M 1002,65 L 1000,67 L 1000,68 L 1002,70 L 1005,70 L 1007,68 L 1007,67 L 1005,65 Z" />
<path d="M 549,65 L 547,67 L 547,68 L 549,70 L 552,70 L 554,68 L 554,67 L 552,65 Z" />
<path d="M 834,64 L 833,65 L 832,65 L 830,67 L 830,68 L 832,70 L 833,70 L 834,71 L 837,71 L 838,70 L 839,70 L 841,68 L 841,67 L 839,65 L 838,65 L 837,64 Z" />
<path d="M 257,62 L 254,65 L 256,67 L 256,68 L 254,70 L 256,72 L 258,72 L 259,73 L 262,73 L 265,70 L 263,68 L 263,67 L 265,65 L 263,63 L 261,63 L 260,62 Z" />
<path d="M 810,55 L 808,57 L 808,62 L 810,64 L 813,64 L 815,62 L 815,57 L 813,55 Z" />
<path d="M 786,55 L 784,57 L 784,62 L 786,64 L 789,64 L 791,62 L 791,57 L 789,55 Z" />
<path d="M 95,55 L 93,57 L 93,62 L 95,64 L 98,64 L 100,62 L 100,57 L 98,55 Z" />
<path d="M 876,54 L 875,55 L 872,55 L 870,57 L 872,59 L 872,60 L 870,62 L 873,65 L 875,65 L 876,64 L 879,64 L 881,62 L 879,60 L 879,59 L 881,57 L 878,54 Z" />
<path d="M 467,54 L 465,56 L 465,57 L 466,58 L 466,59 L 465,60 L 464,60 L 462,62 L 462,63 L 464,65 L 468,65 L 470,63 L 470,62 L 469,61 L 469,60 L 470,59 L 471,59 L 473,57 L 473,56 L 471,54 Z" />
<path d="M 112,53 L 110,55 L 110,58 L 112,60 L 119,60 L 121,58 L 121,55 L 119,53 Z" />
<path d="M 513,47 L 511,49 L 511,54 L 513,56 L 516,56 L 518,54 L 518,49 L 516,47 Z" />
<path d="M 49,45 L 48,46 L 47,46 L 46,47 L 46,48 L 45,49 L 45,62 L 46,63 L 46,64 L 47,65 L 48,65 L 49,66 L 62,66 L 63,65 L 64,65 L 65,64 L 65,63 L 66,62 L 66,49 L 65,48 L 65,47 L 64,46 L 63,46 L 62,45 Z" />
<path d="M 969,37 L 966,40 L 966,47 L 969,50 L 971,50 L 974,47 L 974,40 L 971,37 Z" />
<path d="M 565,33 L 563,35 L 563,36 L 565,38 L 568,38 L 570,36 L 570,35 L 568,33 Z" />
<path d="M 687,31 L 685,33 L 685,38 L 687,40 L 690,40 L 692,38 L 692,33 L 690,31 Z" />
<path d="M 487,31 L 485,33 L 485,38 L 487,40 L 490,40 L 492,38 L 492,33 L 490,31 Z" />
<path d="M 82,31 L 81,32 L 80,32 L 78,34 L 78,35 L 80,37 L 81,37 L 82,38 L 85,38 L 86,37 L 87,37 L 89,35 L 89,34 L 87,32 L 86,32 L 85,31 Z" />
<path d="M 849,29 L 848,30 L 847,30 L 846,31 L 846,32 L 845,33 L 845,46 L 846,47 L 846,48 L 847,49 L 848,49 L 849,50 L 862,50 L 863,49 L 864,49 L 865,48 L 865,47 L 866,46 L 866,33 L 865,32 L 865,31 L 864,30 L 863,30 L 862,29 Z" />
<path d="M 746,29 L 745,30 L 744,30 L 741,33 L 741,39 L 744,42 L 744,44 L 746,46 L 749,46 L 751,44 L 751,42 L 754,39 L 754,33 L 751,30 L 750,30 L 749,29 Z" />
<path d="M 233,29 L 230,32 L 230,39 L 233,42 L 235,42 L 238,39 L 238,32 L 235,29 Z" />
<path d="M 146,29 L 145,30 L 144,30 L 142,32 L 142,33 L 144,35 L 145,35 L 146,36 L 149,36 L 150,35 L 151,35 L 153,33 L 153,32 L 151,30 L 150,30 L 149,29 Z" />
<path d="M 15,23 L 13,25 L 13,30 L 15,32 L 18,32 L 20,30 L 20,25 L 18,23 Z" />
<path d="M 913,22 L 910,25 L 912,27 L 912,28 L 910,30 L 912,32 L 915,32 L 916,33 L 918,33 L 921,30 L 919,28 L 919,27 L 921,25 L 919,23 L 916,23 L 915,22 Z" />
<path d="M 697,22 L 694,25 L 696,27 L 696,28 L 694,30 L 696,32 L 699,32 L 700,33 L 702,33 L 705,30 L 703,28 L 703,27 L 705,25 L 703,23 L 700,23 L 699,22 Z" />
<path d="M 189,22 L 187,24 L 187,31 L 189,33 L 192,33 L 194,31 L 194,24 L 192,22 Z" />
<path d="M 112,22 L 109,25 L 109,27 L 112,30 L 119,30 L 122,27 L 123,28 L 123,31 L 125,33 L 128,33 L 130,31 L 130,24 L 128,22 L 125,22 L 122,25 L 119,22 Z" />
<path d="M 24,19 L 22,21 L 22,24 L 24,26 L 31,26 L 33,24 L 33,21 L 31,19 Z" />
<path d="M 930,15 L 929,16 L 928,16 L 926,18 L 926,19 L 928,21 L 929,21 L 930,22 L 933,22 L 934,21 L 935,21 L 937,19 L 937,18 L 935,16 L 934,16 L 933,15 Z" />
<path d="M 285,15 L 283,17 L 283,22 L 285,24 L 288,24 L 290,22 L 290,17 L 288,15 Z" />
<path d="M 626,13 L 625,14 L 624,14 L 621,17 L 621,22 L 624,25 L 625,25 L 626,26 L 629,26 L 630,25 L 631,25 L 634,22 L 634,17 L 631,14 L 630,14 L 629,13 Z" />
<path d="M 960,11 L 958,13 L 958,16 L 960,18 L 967,18 L 969,16 L 969,13 L 967,11 Z" />
<path d="M 914,8 L 913,9 L 912,9 L 910,11 L 910,12 L 912,14 L 913,14 L 914,15 L 917,15 L 918,14 L 919,14 L 921,12 L 921,11 L 919,9 L 918,9 L 917,8 Z" />
<path d="M 1022,7 L 1019,10 L 1016,10 L 1013,13 L 1015,15 L 1018,15 L 1020,13 L 1022,13 L 1023,14 L 1023,7 Z" />
<path d="M 218,7 L 216,9 L 216,14 L 218,16 L 221,16 L 223,14 L 223,9 L 221,7 Z" />
<path d="M 82,7 L 80,9 L 80,14 L 82,16 L 85,16 L 87,14 L 87,9 L 85,7 Z" />
<path d="M 253,6 L 251,8 L 251,15 L 253,17 L 256,17 L 258,15 L 258,8 L 256,6 Z" />
<path d="M 402,5 L 401,6 L 400,6 L 397,9 L 397,12 L 396,13 L 392,13 L 391,14 L 384,14 L 382,16 L 382,24 L 381,25 L 381,27 L 380,28 L 379,28 L 378,27 L 378,17 L 375,14 L 374,14 L 373,13 L 370,13 L 369,14 L 368,14 L 365,17 L 365,21 L 364,22 L 360,22 L 357,25 L 357,28 L 356,29 L 352,29 L 349,32 L 349,35 L 350,36 L 350,38 L 349,39 L 349,44 L 348,45 L 343,45 L 342,46 L 336,46 L 334,48 L 334,56 L 333,57 L 333,62 L 332,63 L 332,67 L 333,68 L 332,69 L 330,69 L 329,70 L 328,70 L 325,73 L 325,92 L 324,93 L 320,93 L 317,96 L 317,108 L 316,109 L 314,109 L 313,110 L 312,110 L 309,113 L 309,119 L 307,121 L 307,127 L 309,129 L 312,129 L 314,127 L 314,123 L 315,122 L 316,122 L 317,123 L 317,125 L 318,126 L 318,128 L 317,129 L 317,134 L 316,135 L 316,136 L 315,137 L 315,140 L 314,141 L 307,141 L 306,140 L 305,141 L 303,141 L 302,142 L 300,142 L 299,143 L 298,143 L 297,144 L 295,144 L 293,146 L 293,147 L 294,148 L 294,150 L 295,151 L 295,152 L 296,153 L 296,158 L 299,161 L 300,161 L 301,162 L 301,166 L 300,167 L 300,170 L 301,171 L 301,173 L 300,174 L 300,175 L 298,177 L 298,179 L 297,180 L 296,180 L 294,182 L 291,182 L 290,181 L 289,181 L 288,182 L 287,182 L 285,184 L 285,196 L 284,197 L 284,202 L 285,203 L 285,205 L 284,206 L 283,206 L 280,209 L 280,214 L 279,215 L 280,216 L 280,217 L 277,220 L 277,227 L 281,231 L 281,232 L 282,233 L 281,234 L 281,235 L 280,236 L 280,237 L 279,238 L 278,238 L 277,237 L 272,237 L 269,240 L 269,245 L 270,246 L 270,248 L 269,249 L 269,257 L 272,260 L 271,261 L 266,261 L 265,262 L 264,262 L 261,265 L 261,275 L 263,277 L 263,278 L 261,280 L 261,286 L 264,289 L 265,289 L 266,290 L 267,290 L 268,291 L 268,294 L 266,296 L 265,296 L 263,294 L 262,294 L 261,293 L 257,293 L 256,294 L 255,294 L 254,295 L 252,295 L 251,294 L 248,294 L 245,297 L 245,299 L 247,301 L 247,302 L 245,304 L 245,307 L 248,310 L 249,310 L 250,311 L 251,311 L 253,313 L 253,324 L 254,325 L 254,326 L 255,327 L 255,328 L 254,329 L 254,330 L 253,331 L 253,341 L 254,342 L 254,346 L 253,347 L 253,351 L 254,352 L 254,357 L 253,358 L 253,359 L 254,360 L 254,362 L 253,363 L 253,364 L 252,365 L 252,368 L 251,369 L 251,375 L 253,377 L 253,380 L 252,381 L 250,381 L 249,382 L 248,382 L 245,385 L 245,388 L 244,389 L 242,389 L 241,390 L 240,390 L 237,393 L 237,398 L 240,401 L 241,401 L 242,402 L 245,402 L 246,401 L 247,401 L 250,398 L 250,395 L 251,394 L 252,394 L 253,395 L 253,398 L 254,399 L 254,400 L 253,401 L 253,404 L 252,405 L 250,405 L 249,406 L 248,406 L 245,409 L 245,412 L 244,413 L 234,413 L 233,414 L 232,414 L 230,416 L 230,417 L 232,419 L 233,419 L 234,420 L 236,420 L 237,421 L 237,430 L 236,431 L 236,433 L 235,434 L 234,433 L 231,433 L 229,435 L 229,436 L 231,438 L 234,438 L 235,437 L 236,438 L 236,439 L 238,441 L 239,441 L 240,442 L 245,442 L 246,441 L 247,441 L 250,438 L 250,425 L 251,424 L 252,424 L 253,425 L 253,431 L 254,432 L 254,433 L 255,433 L 257,435 L 257,438 L 261,442 L 261,445 L 260,446 L 258,446 L 257,447 L 256,447 L 255,448 L 255,449 L 253,451 L 253,462 L 256,465 L 257,465 L 258,466 L 260,466 L 261,467 L 261,486 L 264,489 L 265,489 L 266,490 L 268,490 L 269,491 L 269,494 L 272,497 L 273,497 L 274,498 L 276,498 L 277,499 L 277,510 L 279,512 L 279,513 L 280,514 L 280,517 L 279,518 L 279,519 L 277,521 L 277,526 L 278,527 L 278,528 L 279,529 L 279,533 L 278,534 L 277,533 L 274,533 L 273,532 L 273,531 L 271,529 L 270,529 L 269,528 L 266,528 L 265,529 L 264,529 L 262,531 L 262,532 L 263,533 L 263,535 L 261,537 L 261,558 L 264,561 L 265,561 L 266,562 L 271,562 L 272,563 L 272,565 L 271,566 L 270,566 L 269,565 L 266,565 L 265,566 L 264,566 L 261,569 L 261,574 L 263,576 L 263,577 L 261,579 L 261,580 L 262,581 L 262,583 L 260,585 L 258,585 L 257,586 L 256,586 L 254,588 L 254,589 L 255,590 L 255,591 L 253,593 L 253,598 L 256,601 L 257,601 L 258,602 L 261,602 L 262,601 L 263,601 L 266,598 L 266,595 L 267,594 L 269,594 L 270,595 L 270,608 L 269,609 L 269,612 L 268,613 L 266,613 L 265,614 L 264,614 L 261,617 L 261,628 L 260,629 L 259,629 L 258,628 L 258,625 L 255,622 L 254,622 L 253,621 L 242,621 L 241,622 L 240,622 L 237,625 L 237,628 L 236,629 L 227,629 L 226,628 L 226,627 L 227,626 L 229,626 L 230,625 L 231,625 L 234,622 L 234,619 L 236,617 L 237,617 L 238,616 L 239,616 L 240,615 L 240,614 L 242,612 L 242,611 L 241,610 L 241,607 L 242,606 L 242,603 L 243,602 L 245,602 L 246,601 L 247,601 L 250,598 L 250,593 L 247,590 L 246,590 L 245,589 L 243,589 L 242,588 L 242,585 L 239,582 L 238,582 L 237,581 L 234,581 L 233,582 L 232,582 L 229,585 L 229,588 L 228,589 L 227,589 L 226,588 L 226,577 L 225,576 L 225,575 L 224,574 L 223,574 L 222,573 L 210,573 L 209,572 L 209,571 L 207,569 L 206,569 L 205,568 L 202,568 L 201,567 L 202,566 L 202,561 L 199,558 L 198,558 L 197,557 L 194,557 L 193,558 L 192,558 L 189,561 L 189,566 L 192,569 L 193,569 L 194,570 L 197,570 L 198,571 L 198,572 L 200,574 L 201,574 L 202,575 L 205,575 L 206,576 L 205,577 L 205,582 L 204,583 L 202,583 L 200,585 L 200,590 L 202,592 L 206,592 L 207,593 L 208,593 L 209,594 L 220,594 L 221,595 L 221,606 L 222,607 L 222,608 L 223,609 L 224,609 L 225,610 L 230,610 L 231,611 L 231,612 L 230,613 L 226,613 L 225,614 L 224,614 L 221,617 L 221,620 L 220,621 L 218,621 L 217,622 L 216,622 L 213,625 L 213,636 L 212,637 L 211,637 L 210,636 L 210,633 L 207,630 L 206,630 L 205,629 L 194,629 L 193,630 L 188,630 L 187,631 L 186,631 L 185,632 L 183,632 L 181,634 L 181,635 L 182,636 L 181,637 L 178,637 L 177,638 L 176,638 L 173,641 L 173,643 L 176,646 L 177,646 L 178,647 L 181,647 L 182,646 L 183,646 L 186,643 L 186,642 L 188,640 L 190,640 L 191,641 L 192,641 L 193,642 L 204,642 L 205,643 L 205,646 L 208,649 L 209,649 L 210,650 L 212,650 L 213,651 L 213,660 L 212,661 L 211,661 L 210,660 L 210,655 L 207,652 L 206,652 L 205,651 L 202,651 L 201,652 L 200,652 L 197,655 L 197,660 L 196,661 L 187,661 L 186,660 L 186,657 L 183,654 L 182,654 L 181,653 L 171,653 L 170,652 L 170,649 L 167,646 L 166,646 L 165,645 L 161,645 L 160,646 L 159,646 L 157,648 L 155,648 L 154,647 L 154,641 L 151,638 L 150,638 L 149,637 L 146,637 L 145,636 L 145,631 L 146,630 L 146,609 L 143,606 L 142,606 L 141,605 L 138,605 L 137,606 L 136,606 L 133,609 L 133,621 L 132,622 L 128,622 L 126,624 L 126,639 L 128,641 L 140,641 L 141,642 L 141,646 L 144,649 L 145,649 L 146,650 L 149,650 L 150,651 L 149,652 L 149,654 L 148,655 L 147,655 L 146,654 L 143,654 L 142,653 L 138,653 L 137,654 L 136,654 L 133,657 L 133,660 L 132,661 L 131,661 L 130,660 L 130,657 L 127,654 L 126,654 L 125,653 L 122,653 L 121,654 L 120,654 L 117,657 L 117,671 L 115,673 L 115,676 L 114,677 L 106,677 L 105,678 L 104,678 L 101,681 L 101,686 L 104,689 L 105,689 L 106,690 L 117,690 L 118,689 L 119,689 L 122,686 L 122,675 L 123,674 L 124,674 L 125,675 L 125,694 L 128,697 L 129,697 L 130,698 L 132,698 L 133,699 L 133,708 L 132,709 L 131,709 L 130,708 L 130,705 L 127,702 L 126,702 L 125,701 L 122,701 L 121,702 L 120,702 L 117,705 L 117,718 L 120,721 L 121,721 L 122,722 L 124,722 L 125,723 L 125,740 L 124,741 L 91,741 L 90,740 L 90,739 L 91,738 L 109,738 L 110,737 L 111,737 L 114,734 L 114,721 L 111,718 L 110,718 L 109,717 L 107,717 L 106,716 L 106,713 L 103,710 L 102,710 L 101,709 L 98,709 L 97,710 L 96,710 L 93,713 L 93,724 L 92,725 L 91,725 L 90,724 L 90,713 L 87,710 L 86,710 L 85,709 L 81,709 L 80,710 L 71,710 L 70,709 L 66,709 L 65,710 L 64,710 L 61,713 L 61,716 L 60,717 L 59,717 L 58,716 L 58,713 L 55,710 L 54,710 L 53,709 L 42,709 L 41,710 L 40,710 L 37,713 L 37,718 L 40,721 L 41,721 L 42,722 L 44,722 L 45,723 L 45,732 L 44,733 L 43,733 L 42,732 L 42,729 L 39,726 L 38,726 L 37,725 L 35,725 L 34,724 L 34,721 L 31,718 L 30,718 L 29,717 L 27,717 L 26,716 L 26,715 L 27,714 L 29,714 L 30,713 L 31,713 L 34,710 L 34,696 L 36,694 L 36,689 L 34,687 L 34,681 L 35,680 L 39,680 L 41,678 L 41,677 L 40,676 L 40,675 L 41,674 L 41,672 L 42,671 L 42,665 L 39,662 L 38,662 L 37,661 L 33,661 L 32,662 L 31,662 L 30,663 L 29,663 L 29,664 L 27,666 L 24,666 L 21,669 L 18,669 L 17,670 L 16,670 L 13,673 L 13,676 L 12,677 L 10,677 L 9,678 L 8,678 L 5,681 L 5,702 L 8,705 L 9,705 L 10,706 L 12,706 L 13,707 L 13,708 L 12,709 L 0,709 L 0,738 L 7,738 L 8,737 L 12,737 L 14,739 L 14,744 L 13,745 L 13,748 L 12,749 L 10,749 L 9,750 L 8,750 L 5,753 L 5,766 L 8,769 L 9,769 L 10,770 L 12,770 L 13,771 L 13,772 L 12,773 L 0,773 L 0,826 L 4,826 L 5,827 L 5,832 L 7,834 L 7,835 L 5,837 L 0,837 L 0,890 L 4,890 L 5,891 L 5,893 L 4,894 L 0,894 L 0,1023 L 10,1023 L 10,1011 L 11,1010 L 20,1010 L 21,1011 L 21,1012 L 20,1013 L 18,1013 L 17,1014 L 16,1014 L 13,1017 L 13,1023 L 34,1023 L 34,1019 L 35,1018 L 36,1018 L 37,1019 L 37,1023 L 50,1023 L 50,1011 L 51,1010 L 53,1010 L 54,1011 L 53,1012 L 53,1013 L 55,1015 L 57,1015 L 58,1016 L 59,1016 L 61,1018 L 61,1023 L 1023,1023 L 1023,957 L 1019,957 L 1018,956 L 1018,955 L 1019,954 L 1023,954 L 1023,749 L 1019,749 L 1018,748 L 1018,747 L 1019,746 L 1023,746 L 1023,669 L 1017,669 L 1016,668 L 1016,666 L 1018,664 L 1018,657 L 1015,654 L 1014,654 L 1013,653 L 1011,653 L 1010,652 L 1010,649 L 1007,646 L 1006,646 L 1005,645 L 1001,645 L 1000,646 L 994,646 L 993,647 L 992,647 L 991,648 L 990,648 L 989,647 L 984,647 L 983,646 L 982,646 L 981,645 L 978,645 L 977,646 L 976,646 L 973,649 L 973,654 L 976,657 L 977,657 L 978,658 L 981,658 L 982,657 L 983,657 L 984,656 L 990,656 L 991,657 L 991,661 L 990,662 L 989,661 L 963,661 L 962,660 L 962,649 L 963,648 L 963,647 L 964,646 L 964,643 L 965,642 L 973,642 L 974,641 L 975,641 L 978,638 L 978,633 L 975,630 L 974,630 L 973,629 L 971,629 L 970,628 L 970,625 L 967,622 L 966,622 L 965,621 L 962,621 L 960,619 L 960,618 L 962,616 L 962,611 L 963,610 L 974,610 L 975,609 L 976,609 L 977,608 L 977,607 L 978,606 L 978,595 L 979,594 L 981,594 L 982,593 L 983,593 L 986,590 L 986,585 L 983,582 L 982,582 L 981,581 L 978,581 L 977,582 L 976,582 L 973,585 L 973,588 L 972,589 L 961,589 L 960,590 L 959,590 L 958,591 L 958,592 L 957,593 L 957,596 L 956,597 L 954,597 L 953,598 L 952,598 L 949,601 L 949,614 L 950,615 L 950,617 L 949,618 L 951,620 L 950,621 L 946,621 L 945,622 L 944,622 L 941,625 L 941,628 L 940,629 L 939,629 L 938,628 L 938,619 L 939,618 L 941,618 L 942,617 L 943,617 L 946,614 L 946,609 L 943,606 L 942,606 L 941,605 L 938,605 L 937,606 L 936,606 L 933,609 L 933,612 L 932,613 L 930,613 L 929,614 L 928,614 L 925,617 L 925,636 L 924,637 L 923,637 L 922,636 L 922,617 L 919,614 L 918,614 L 917,613 L 915,613 L 914,612 L 914,611 L 915,610 L 917,610 L 918,609 L 919,609 L 922,606 L 922,595 L 923,594 L 925,594 L 926,593 L 927,593 L 930,590 L 930,569 L 927,566 L 926,566 L 925,565 L 914,565 L 913,566 L 912,566 L 909,569 L 909,574 L 912,577 L 913,577 L 914,578 L 916,578 L 917,579 L 917,580 L 916,581 L 914,581 L 913,582 L 912,582 L 909,585 L 909,588 L 908,589 L 897,589 L 896,590 L 895,590 L 894,591 L 894,592 L 893,593 L 893,607 L 897,611 L 897,614 L 899,616 L 903,616 L 904,617 L 905,617 L 906,618 L 908,618 L 909,619 L 909,636 L 908,637 L 898,637 L 897,638 L 896,638 L 893,641 L 893,644 L 892,645 L 891,645 L 890,644 L 890,641 L 887,638 L 886,638 L 885,637 L 882,637 L 881,638 L 880,638 L 877,641 L 877,644 L 876,645 L 875,645 L 874,644 L 874,635 L 875,634 L 885,634 L 886,633 L 887,633 L 890,630 L 890,625 L 887,622 L 886,622 L 885,621 L 882,621 L 881,620 L 881,619 L 882,618 L 885,618 L 886,617 L 887,617 L 890,614 L 890,609 L 887,606 L 886,606 L 885,605 L 874,605 L 873,606 L 872,606 L 869,609 L 869,612 L 868,613 L 858,613 L 857,614 L 856,614 L 853,617 L 853,620 L 852,621 L 850,621 L 849,622 L 845,622 L 844,621 L 843,621 L 842,622 L 841,622 L 840,623 L 839,623 L 839,624 L 837,626 L 837,628 L 836,629 L 835,629 L 834,628 L 834,619 L 835,618 L 837,618 L 838,617 L 839,617 L 842,614 L 842,603 L 843,602 L 845,602 L 846,601 L 847,601 L 850,598 L 850,593 L 847,590 L 846,590 L 845,589 L 842,589 L 841,590 L 840,590 L 837,593 L 837,596 L 836,597 L 835,597 L 834,596 L 834,579 L 835,578 L 836,578 L 837,579 L 837,582 L 840,585 L 841,585 L 842,586 L 845,586 L 846,585 L 847,585 L 850,582 L 850,577 L 852,575 L 853,575 L 854,574 L 855,574 L 857,572 L 857,571 L 855,569 L 854,569 L 853,568 L 850,568 L 848,566 L 847,566 L 846,565 L 840,565 L 839,564 L 838,564 L 837,565 L 836,564 L 836,563 L 834,561 L 834,539 L 835,538 L 837,538 L 838,537 L 839,537 L 842,534 L 842,521 L 839,518 L 838,518 L 837,517 L 834,517 L 833,516 L 833,514 L 834,513 L 839,513 L 840,514 L 844,514 L 845,515 L 845,534 L 848,537 L 849,537 L 850,538 L 861,538 L 862,537 L 863,537 L 866,534 L 866,513 L 865,512 L 865,511 L 864,510 L 860,510 L 859,509 L 857,509 L 856,510 L 855,509 L 851,509 L 850,508 L 850,497 L 849,496 L 849,495 L 848,494 L 847,494 L 846,493 L 833,493 L 832,494 L 831,494 L 830,495 L 830,496 L 829,497 L 829,500 L 828,501 L 827,501 L 826,500 L 826,497 L 823,494 L 822,494 L 821,493 L 819,493 L 818,492 L 818,491 L 819,490 L 829,490 L 830,489 L 831,489 L 834,486 L 834,481 L 831,478 L 830,478 L 829,477 L 827,477 L 826,476 L 826,473 L 823,470 L 822,470 L 821,469 L 818,469 L 817,470 L 816,470 L 813,473 L 813,484 L 812,485 L 810,485 L 809,486 L 808,486 L 805,489 L 805,500 L 804,501 L 802,501 L 801,500 L 802,499 L 802,498 L 800,496 L 798,496 L 797,495 L 796,495 L 795,494 L 790,494 L 789,493 L 786,493 L 785,494 L 784,494 L 781,497 L 781,500 L 780,501 L 779,501 L 778,500 L 778,497 L 775,494 L 774,494 L 773,493 L 763,493 L 762,492 L 762,491 L 763,490 L 781,490 L 782,489 L 783,489 L 786,486 L 786,481 L 783,478 L 782,478 L 781,477 L 779,477 L 778,476 L 778,473 L 775,470 L 774,470 L 773,469 L 771,469 L 770,468 L 770,457 L 767,454 L 766,454 L 765,453 L 754,453 L 753,454 L 752,454 L 749,457 L 749,460 L 748,461 L 739,461 L 738,460 L 738,457 L 739,456 L 739,454 L 738,453 L 738,450 L 739,449 L 739,447 L 738,446 L 738,443 L 739,442 L 740,442 L 741,443 L 741,447 L 743,449 L 744,449 L 745,450 L 749,450 L 750,449 L 755,449 L 756,450 L 757,450 L 758,449 L 759,449 L 761,447 L 761,446 L 759,444 L 761,442 L 764,442 L 765,443 L 765,446 L 768,449 L 769,449 L 770,450 L 773,450 L 774,449 L 775,449 L 778,446 L 778,433 L 775,430 L 774,430 L 773,429 L 762,429 L 761,430 L 760,430 L 757,433 L 757,436 L 755,438 L 754,437 L 754,434 L 753,433 L 753,431 L 754,430 L 754,426 L 755,425 L 756,425 L 757,426 L 765,426 L 766,425 L 767,425 L 770,422 L 770,419 L 771,418 L 773,418 L 774,417 L 775,417 L 778,414 L 778,401 L 775,398 L 774,398 L 773,397 L 770,397 L 769,398 L 768,398 L 765,401 L 765,404 L 764,405 L 763,405 L 762,404 L 762,401 L 759,398 L 758,398 L 757,397 L 744,397 L 743,396 L 743,394 L 744,393 L 745,393 L 746,394 L 749,394 L 750,393 L 751,393 L 754,390 L 754,385 L 751,382 L 750,382 L 749,381 L 747,381 L 746,380 L 746,378 L 747,377 L 749,377 L 750,376 L 751,376 L 752,375 L 752,374 L 754,372 L 754,360 L 755,359 L 755,352 L 754,351 L 754,345 L 751,342 L 750,342 L 749,341 L 747,341 L 746,340 L 746,336 L 743,333 L 743,330 L 744,329 L 744,328 L 746,326 L 746,313 L 744,311 L 741,311 L 739,313 L 736,310 L 732,310 L 731,309 L 731,308 L 730,307 L 730,297 L 726,293 L 726,291 L 729,288 L 729,287 L 730,286 L 730,283 L 731,282 L 733,282 L 734,281 L 735,281 L 738,278 L 738,275 L 739,274 L 741,274 L 742,273 L 743,273 L 745,271 L 745,270 L 743,268 L 742,268 L 741,267 L 741,266 L 742,265 L 743,265 L 746,262 L 746,257 L 743,254 L 742,254 L 741,253 L 727,253 L 726,252 L 726,249 L 722,245 L 722,225 L 723,224 L 723,223 L 724,222 L 724,217 L 723,216 L 723,215 L 722,214 L 726,210 L 726,209 L 722,205 L 722,204 L 720,202 L 720,197 L 722,195 L 722,192 L 719,189 L 707,189 L 706,188 L 706,186 L 707,185 L 707,176 L 705,174 L 705,172 L 706,171 L 706,166 L 708,164 L 708,163 L 706,161 L 706,159 L 707,158 L 707,157 L 706,156 L 706,149 L 705,148 L 705,143 L 706,142 L 706,129 L 705,128 L 705,127 L 704,126 L 701,126 L 700,127 L 699,127 L 697,125 L 697,123 L 698,122 L 698,120 L 700,118 L 700,113 L 701,112 L 704,112 L 706,110 L 706,105 L 704,103 L 701,103 L 699,105 L 699,110 L 698,111 L 697,110 L 696,110 L 695,109 L 692,109 L 690,107 L 690,99 L 691,98 L 691,96 L 690,95 L 690,79 L 688,77 L 688,76 L 690,74 L 688,72 L 688,71 L 687,71 L 686,70 L 685,70 L 684,69 L 683,69 L 682,70 L 680,70 L 676,74 L 674,72 L 674,67 L 675,66 L 675,58 L 674,57 L 674,56 L 675,55 L 677,57 L 680,57 L 682,55 L 682,48 L 680,46 L 677,46 L 675,48 L 674,47 L 674,41 L 671,38 L 670,38 L 669,37 L 667,37 L 666,36 L 666,33 L 665,32 L 665,31 L 664,30 L 663,30 L 662,29 L 657,29 L 656,30 L 655,29 L 620,29 L 619,30 L 618,30 L 618,31 L 616,33 L 615,32 L 615,31 L 613,29 L 608,29 L 605,32 L 605,34 L 606,35 L 606,36 L 605,37 L 605,38 L 604,39 L 604,42 L 605,43 L 605,44 L 602,47 L 601,47 L 599,45 L 592,45 L 589,48 L 589,53 L 590,54 L 590,56 L 589,57 L 589,60 L 588,61 L 582,61 L 581,62 L 579,62 L 578,61 L 577,61 L 576,62 L 575,62 L 574,63 L 574,64 L 573,65 L 573,76 L 572,77 L 569,77 L 568,78 L 561,78 L 559,76 L 559,73 L 557,71 L 554,71 L 552,73 L 552,77 L 551,78 L 551,79 L 549,81 L 549,84 L 547,86 L 543,86 L 542,85 L 538,85 L 537,86 L 536,86 L 533,89 L 533,92 L 532,93 L 530,93 L 529,94 L 528,94 L 525,97 L 525,100 L 524,101 L 523,101 L 522,100 L 522,97 L 519,94 L 518,94 L 517,93 L 514,93 L 513,94 L 512,94 L 509,97 L 509,100 L 508,101 L 506,101 L 505,102 L 504,102 L 501,105 L 501,108 L 500,109 L 494,109 L 493,110 L 491,110 L 490,109 L 490,103 L 487,100 L 486,100 L 485,99 L 483,99 L 482,98 L 482,97 L 481,96 L 481,95 L 479,93 L 475,93 L 474,92 L 474,81 L 473,80 L 473,79 L 471,77 L 450,77 L 449,76 L 449,75 L 448,74 L 449,73 L 449,72 L 447,70 L 445,70 L 443,72 L 442,71 L 442,70 L 440,68 L 440,66 L 441,65 L 441,64 L 440,63 L 440,62 L 439,61 L 435,61 L 434,60 L 434,25 L 431,22 L 430,22 L 429,21 L 426,21 L 425,22 L 424,22 L 421,25 L 421,44 L 420,45 L 419,45 L 416,42 L 416,41 L 417,40 L 417,39 L 418,38 L 418,35 L 419,34 L 419,33 L 418,32 L 418,31 L 417,30 L 416,30 L 415,29 L 403,29 L 402,28 L 402,27 L 403,26 L 413,26 L 414,25 L 415,25 L 418,22 L 418,17 L 415,14 L 414,14 L 413,13 L 411,13 L 410,12 L 410,9 L 407,6 L 406,6 L 405,5 Z" />
<path d="M 899,0 L 899,7 L 901,9 L 904,9 L 906,7 L 906,0 Z" />
<path d="M 424,0 L 424,6 L 426,8 L 429,8 L 431,6 L 431,0 Z" />
<path d="M 373,0 L 373,6 L 376,9 L 377,9 L 378,10 L 381,10 L 382,9 L 383,9 L 386,6 L 386,0 Z" />
<path d="M 357,0 L 357,6 L 360,9 L 361,9 L 362,10 L 365,10 L 366,9 L 367,9 L 370,6 L 370,0 Z" />
<path d="M 183,0 L 181,2 L 184,5 L 187,5 L 189,7 L 192,7 L 194,5 L 191,2 L 188,2 L 186,0 Z" />
<path d="M 101,0 L 104,3 L 105,3 L 106,4 L 109,4 L 110,3 L 111,3 L 114,0 Z" />
</g>
</svg>